<svg width="301" height="141" viewBox="0 0 301 141" fill="none" xmlns="http://www.w3.org/2000/svg">
<path fill-rule="evenodd" clip-rule="evenodd" d="M39.7058 60.4232L89.2953 17.423L89.8258 16.923C90.2755 16.453 90.4024 16.343 90.783 15.833C94.3696 11.093 92.0746 3.77293 86.0893 1.30292C84.9014 0.812919 83.6098 0.492918 82.3066 0.382918C80.7959 0.242917 80.4268 0.352917 79.9425 0.382918C77.8436 0.632919 75.8139 1.26292 74.1417 2.36292C73.5881 2.73293 73.4728 2.84293 72.9538 3.26293L3.6554 63.3532C3.17104 63.8032 3.04418 63.9032 2.61748 64.3832C-0.392486 67.8232 -0.46168 72.9732 2.61748 76.4932C3.04418 76.9732 3.17104 77.0732 3.6554 77.5232L72.9538 137.613C73.4728 138.033 73.5881 138.143 74.1417 138.513C80.3115 142.563 91.0597 139.483 92.5013 132.233C93.0433 129.543 92.2361 126.663 90.3332 124.483C89.9065 123.993 89.7681 123.893 89.2953 123.453L39.7058 80.4532H289.037C289.96 80.3532 290.894 80.3532 291.793 80.1632C299.774 78.4532 303.706 68.3332 296.695 62.9432C295.288 61.8632 293.615 61.1032 291.793 60.7132C290.894 60.5232 289.96 60.5232 289.037 60.4232H39.7058Z" fill="#0084FF"/>
</svg>
